HIERARCHY
ROOT Hips
{
	OFFSET -3.958830 18.904000 13.208200
	CHANNELS 6 Xposition Yposition Zposition Zrotation Yrotation Xrotation 
	JOINT LHipJoint
	{
		OFFSET 0.000000 0.000000 0.000000
		CHANNELS 3 Zrotation Yrotation Xrotation
		JOINT LeftUpLeg
		{
			OFFSET 1.800000 -1.400000 0.085000
			CHANNELS 3 Zrotation Yrotation Xrotation
			JOINT LeftLeg
			{
				OFFSET 2.215000 -6.000000 0.000000
				CHANNELS 3 Zrotation Yrotation Xrotation
				JOINT LeftFoot
				{
					OFFSET 2.500000 -6.900000 0.000000
					CHANNELS 3 Zrotation Yrotation Xrotation
					JOINT LeftToeBase
					{
						OFFSET 0.200000 -0.500000 1.950000
						CHANNELS 3 Zrotation Yrotation Xrotation
						End Site
						{
							OFFSET 0.000000 0.000000 0.000000
						}
					}
				}
			}
		}
	}
	JOINT RHipJoint
	{
		OFFSET 0.000000 0.000000 0.000000
		CHANNELS 3 Zrotation Yrotation Xrotation
		JOINT RightUpLeg
		{
			OFFSET -1.800000 -1.400000 0.085000
			CHANNELS 3 Zrotation Yrotation Xrotation
			JOINT RightLeg
			{
				OFFSET -2.215000 -6.000000 0.000000
				CHANNELS 3 Zrotation Yrotation Xrotation
				JOINT RightFoot
				{
					OFFSET -2.500000 -6.900000 0.000000
					CHANNELS 3 Zrotation Yrotation Xrotation
					JOINT RightToeBase
					{
						OFFSET -0.200000 -0.500000 1.950000
						CHANNELS 3 Zrotation Yrotation Xrotation
						End Site
						{
							OFFSET 0.000000 0.000000 0.000000
						}
					}
				}
			}
		}
	}
	JOINT LowerBack
	{
		OFFSET 0.000000 0.000000 0.000000
		CHANNELS 3 Zrotation Yrotation Xrotation
		JOINT Spine
		{
			OFFSET -0.087000 1.940000 -0.288900
			CHANNELS 3 Zrotation Yrotation Xrotation
			JOINT Spine1
			{
				OFFSET 0.000000 1.950000 0.060000
				CHANNELS 3 Zrotation Yrotation Xrotation
				JOINT Neck
				{
					OFFSET 0.000000 0.000000 0.000000
					CHANNELS 3 Zrotation Yrotation Xrotation
					JOINT Neck1
					{
						OFFSET 0.000000 1.600000 0.340000
						CHANNELS 3 Zrotation Yrotation Xrotation
						JOINT Head
						{
							OFFSET 0.000000 1.667000 -0.240000
							CHANNELS 3 Zrotation Yrotation Xrotation
							End Site
							{
								OFFSET 0.000000 0.000000 0.000000
							}
						}
					}
				}
				JOINT LeftShoulder
				{
					OFFSET 0.000000 0.000000 0.000000
					CHANNELS 3 Zrotation Yrotation Xrotation
					JOINT LeftArm
					{
						OFFSET 2.700000 1.550000 -0.730000
						CHANNELS 3 Zrotation Yrotation Xrotation
						JOINT LeftForeArm
						{
							OFFSET 5.450000 0.000000 0.000000
							CHANNELS 3 Zrotation Yrotation Xrotation
							JOINT LeftHand
							{
								OFFSET 3.450000 0.000000 0.000000
								CHANNELS 3 Zrotation Yrotation Xrotation
								JOINT LeftHandIndex1
								{
									OFFSET 0.750000 0.000000 0.000000
									CHANNELS 3 Zrotation Yrotation Xrotation
									End Site
									{
										OFFSET 0.000000 0.000000 0.000000
									}
								}
							}
						}
					}
				}
				JOINT RightShoulder
				{
					OFFSET 0.000000 0.000000 0.000000
					CHANNELS 3 Zrotation Yrotation Xrotation
					JOINT RightArm
					{
						OFFSET -2.700000 1.550000 -0.730000
						CHANNELS 3 Zrotation Yrotation Xrotation
						JOINT RightForeArm
						{
							OFFSET -5.450000 0.000000 0.000000
							CHANNELS 3 Zrotation Yrotation Xrotation
							JOINT RightHand
							{
								OFFSET -3.450000 0.000000 0.000000
								CHANNELS 3 Zrotation Yrotation Xrotation
								JOINT RightHandIndex1
								{
									OFFSET -0.750000 0.000000 0.000000
									CHANNELS 3 Zrotation Yrotation Xrotation
									End Site
									{
										OFFSET 0.000000 0.000000 0.000000
									}
								}
							}
						}
					}
				}
			}
		}
	}
}
MOTION
Frames: 7
Frame Time: 0.016667
0.897420 17.299330 -1.046280 -4.508631 -4.419115 7.691323 -15.373628 12.967333 2.990223 -1.347022 -0.876327 -7.934430 -7.116742 4.198284 4.263887 -1.010088 4.997757 3.525334 -0.126800 -0.764460 -0.140070 18.111724 -10.619608 2.538038 -16.717604 0.877224 -9.403057 3.025972 -4.178033 1.257262 -0.348536 -4.238825 2.971326 -0.135230 1.442230 0.872130 -3.052135 -1.700503 -6.913535 3.777143 2.488799 3.053502 3.997873 1.287051 5.512581 2.395800 2.173193 -8.582555 3.422013 3.683967 23.433856 -9.788800 6.008560 -4.947480 -17.850618 -7.374285 3.122496 -7.476869 -0.933162 1.373446 8.642715 -6.723978 -1.923678 -4.941661 2.515251 0.678840 0.933930 -0.299830 0.450160 14.064936 6.128332 4.972765 13.015489 3.826873 -2.392771 -9.010627 12.124990 -0.942821 1.708655 -1.211450 -0.690680 0.664900 0.564680 -0.124780 
0.898040 17.299220 -1.044530 -4.488414 -4.451617 7.653980 -15.374756 12.966145 2.993638 -1.310424 -0.862758 -7.871799 -7.260645 4.222679 4.227260 -1.007369 5.012130 3.517748 -0.121710 -0.758150 -0.138640 18.107566 -10.614823 2.532630 -17.217984 0.877066 -9.440297 3.015206 -4.202460 1.312070 -0.353663 -4.258031 2.958114 -0.132530 1.438160 0.874360 -3.045972 -1.712177 -6.918734 3.729292 2.503652 3.081522 4.032849 1.299258 5.546689 2.372276 2.140394 -8.593256 3.359644 3.711009 23.480711 -9.768660 5.997070 -5.089890 -17.733873 -7.343103 3.123068 -6.857667 -0.801025 1.413162 8.684597 -6.454640 -1.913435 -4.940670 2.518106 0.682320 0.930380 -0.295360 0.451140 13.996518 6.121079 4.985148 12.402540 3.838808 -2.336107 -9.195884 11.504437 -0.925791 1.718555 -1.212223 -0.688030 0.663530 0.563600 -0.124670 
0.897910 17.297660 -1.039240 -4.461617 -4.356087 7.637504 -15.376694 12.949891 2.991746 -1.218155 -0.842102 -7.766635 -7.500188 4.252545 4.084883 -1.010626 5.036465 3.505330 -0.111120 -0.744740 -0.132920 18.104826 -10.593757 2.533154 -18.063395 0.886208 -9.413119 2.958422 -4.217647 1.201908 -0.362163 -4.305531 2.932123 -0.121760 1.432460 0.871320 -3.044130 -1.724840 -6.921889 3.667973 2.512630 3.021232 4.052531 1.302307 5.649871 2.341414 2.126755 -8.578993 3.334839 3.729104 23.402977 -9.696150 5.933930 -5.306690 -17.546657 -7.289528 3.074294 -5.755483 -0.831645 1.504802 8.846544 -5.715137 -1.897999 -4.947456 2.518478 0.684330 0.926900 -0.295440 0.449760 13.871750 6.041876 5.002482 11.356057 3.749002 -2.217088 -9.370210 10.512071 -0.897314 1.730643 -1.216433 -0.688440 0.664890 0.562320 -0.127980 
0.896790 17.293920 -1.033020 -4.421843 -4.260312 7.596549 -15.379687 12.933167 2.989856 -1.069475 -0.810366 -7.637856 -7.870606 4.317435 3.975516 -1.010779 5.081401 3.487939 -0.106800 -0.740700 -0.131170 18.099656 -10.571919 2.531934 -19.129978 0.894197 -9.432591 2.838035 -4.241478 1.140001 -0.367129 -4.360275 2.905843 -0.113680 1.429020 0.866800 -3.037523 -1.739115 -6.927530 3.541759 2.544004 2.953693 4.163732 1.311589 5.796323 2.284798 2.109019 -8.618594 3.298392 3.673453 23.369337 -9.705860 5.843370 -5.388750 -17.188302 -7.251358 3.070136 -4.478297 -0.686621 1.605360 8.750089 -5.141221 -1.875047 -4.953938 2.514798 0.686880 0.926020 -0.298090 0.449130 13.627468 5.993203 5.066227 10.187582 3.584859 -2.114688 -9.663455 9.378724 -0.861635 1.743194 -1.219458 -0.693540 0.668080 0.563030 -0.133140 
0.893570 17.289240 -1.027580 -4.384998 -4.127997 7.603983 -15.383321 12.909460 2.983336 -0.985240 -0.787074 -7.541224 -8.108534 4.342133 3.811088 -1.013123 5.115905 3.482208 -0.104790 -0.735900 -0.136600 18.096833 -10.543939 2.535648 -20.204808 0.912067 -9.451495 2.586021 -4.239007 0.975535 -0.373388 -4.423779 2.875431 -0.105130 1.443150 0.865010 -3.034175 -1.749645 -6.927480 3.353691 2.585090 2.816131 4.379022 1.313738 5.962859 2.166084 2.056893 -8.653500 3.215269 3.592487 23.188549 -9.553980 5.602120 -5.363480 -16.674843 -7.145082 3.062691 -3.316455 -0.539651 1.710403 8.601965 -4.700993 -1.861038 -4.962665 2.510213 0.685600 0.931800 -0.304330 0.455490 13.354360 5.909747 5.118838 8.889172 3.389454 -1.999511 -9.890858 8.175917 -0.827857 1.759279 -1.224386 -0.701280 0.679140 0.563780 -0.127740 
0.891290 17.283340 -1.019200 -4.549464 -3.936122 7.627062 -15.376120 12.871792 2.963366 -0.735817 -0.756297 -7.389730 -8.271298 4.344166 3.559116 -1.010304 5.153094 3.478648 -0.096960 -0.730600 -0.131750 18.107719 -10.518259 2.550595 -21.102519 0.940556 -9.358858 2.349208 -4.226811 0.689737 -0.384362 -4.498688 2.844246 -0.096860 1.456220 0.870430 -3.067143 -1.723447 -6.920721 3.557624 2.581271 2.579340 4.410992 1.272459 6.300595 2.081135 2.050832 -8.690975 3.220765 3.473744 22.904392 -9.517540 5.406630 -5.228230 -16.203838 -7.108721 3.081433 -1.994719 -0.313994 1.829754 8.191453 -4.323837 -1.847468 -4.974180 2.514553 0.678210 0.942400 -0.310870 0.463020 13.033606 5.793659 5.180662 7.624387 3.031862 -1.880721 -9.969805 7.285077 -0.800520 1.769019 -1.237746 -0.703280 0.683830 0.559190 -0.124390 
0.886770 17.277570 -1.013030 -4.609223 -3.768165 7.659673 -15.377439 12.839014 2.942649 -0.596717 -0.734201 -7.291572 -8.369131 4.345755 3.381343 -1.020086 5.190422 3.474136 -0.100760 -0.736380 -0.136050 18.112204 -10.483693 2.563288 -22.022951 0.970389 -9.310048 2.086767 -4.214498 0.428321 -0.383715 -4.574673 2.816228 -0.087460 1.476450 0.868420 -3.078119 -1.721973 -6.906877 3.446267 2.612963 2.313631 4.594075 1.245744 6.659905 1.973724 2.112079 -8.710908 3.340382 3.388473 22.535955 -9.467110 5.250470 -4.981170 -15.874508 -7.124047 3.107555 -0.581703 0.090915 1.952764 7.721802 -4.303002 -1.840785 -4.989369 2.516106 0.667670 0.960510 -0.328960 0.464580 12.918143 5.697105 5.225489 6.169978 2.566205 -1.754308 -9.833893 6.588453 -0.773948 1.767651 -1.245161 -0.716190 0.694580 0.564870 -0.125240 
